<svg width="50.000000" height="48.144531" viewBox="0 0 50 48.1445" fill="none" xmlns="http://www.w3.org/2000/svg" xmlns:xlink="http://www.w3.org/1999/xlink">
	<desc>
			Created with Pixso.
	</desc>
	<defs/>
	<path id="Shape" d="M50 24.07C50 37.36 38.8 48.14 25 48.14C11.19 48.14 0 37.36 0 24.07C0 10.77 11.19 0 25 0C38.8 0 50 10.77 50 24.07ZM16.74 21.86C14.23 22.91 11.66 24 9.31 25.24C8.08 26.11 9.71 26.72 11.24 27.3C11.49 27.39 11.73 27.48 11.95 27.57C12.14 27.63 12.33 27.68 12.53 27.74C14.23 28.27 16.13 28.85 17.79 27.97C20.5 26.47 23.07 24.73 25.63 23C26.47 22.43 27.31 21.86 28.15 21.3C28.19 21.27 28.24 21.25 28.29 21.22C29 20.77 30.62 19.76 30.02 21.15C28.61 22.64 27.09 23.96 25.57 25.28C24.54 26.18 23.51 27.07 22.51 28.03C21.63 28.72 20.72 30.09 21.7 31.05C23.96 32.58 26.26 34.06 28.55 35.55C29.3 36.03 30.04 36.52 30.79 37C32.05 37.97 34.02 37.19 34.3 35.67C34.43 34.97 34.55 34.28 34.67 33.58C35.36 29.72 36.04 25.86 36.65 21.99C36.73 21.39 36.82 20.78 36.92 20.17C37.14 18.7 37.37 17.23 37.44 15.75C37.26 14.27 35.4 14.6 34.37 14.93C29.05 16.88 23.78 18.97 18.54 21.1C17.94 21.35 17.34 21.61 16.74 21.86Z" fill="#E4E4E4" fill-opacity="1.000000" fill-rule="evenodd"/>
</svg>
